<svg width="900" height="600" viewBox="0 0 900 600" fill="none" xmlns="http://www.w3.org/2000/svg">
<rect width="900" height="600" fill="#D9D9D9"/>
<rect x="5" y="5" width="890" height="590" rx="5" stroke="#33ACA5" stroke-width="10"/>
<circle cx="450" cy="300" r="109" stroke="#33ACA5" stroke-width="10"/>
<path d="M377.523 315V285.909H381.045V311.875H394.568V315H377.523ZM408.432 315.455C406.462 315.455 404.734 314.986 403.247 314.048C401.77 313.111 400.615 311.799 399.781 310.114C398.957 308.428 398.545 306.458 398.545 304.205C398.545 301.932 398.957 299.948 399.781 298.253C400.615 296.558 401.77 295.241 403.247 294.304C404.734 293.366 406.462 292.898 408.432 292.898C410.402 292.898 412.125 293.366 413.602 294.304C415.089 295.241 416.244 296.558 417.068 298.253C417.902 299.948 418.318 301.932 418.318 304.205C418.318 306.458 417.902 308.428 417.068 310.114C416.244 311.799 415.089 313.111 413.602 314.048C412.125 314.986 410.402 315.455 408.432 315.455ZM408.432 312.443C409.928 312.443 411.159 312.06 412.125 311.293C413.091 310.526 413.806 309.517 414.27 308.267C414.734 307.017 414.966 305.663 414.966 304.205C414.966 302.746 414.734 301.387 414.27 300.128C413.806 298.868 413.091 297.85 412.125 297.074C411.159 296.297 409.928 295.909 408.432 295.909C406.936 295.909 405.705 296.297 404.739 297.074C403.773 297.85 403.058 298.868 402.594 300.128C402.13 301.387 401.898 302.746 401.898 304.205C401.898 305.663 402.13 307.017 402.594 308.267C403.058 309.517 403.773 310.526 404.739 311.293C405.705 312.06 406.936 312.443 408.432 312.443ZM429.856 315.511C428.473 315.511 427.219 315.251 426.092 314.73C424.965 314.2 424.07 313.438 423.407 312.443C422.744 311.439 422.413 310.227 422.413 308.807C422.413 307.557 422.659 306.544 423.151 305.767C423.644 304.981 424.302 304.366 425.126 303.92C425.95 303.475 426.859 303.144 427.853 302.926C428.857 302.699 429.865 302.519 430.879 302.386C432.204 302.216 433.279 302.088 434.103 302.003C434.936 301.908 435.542 301.752 435.921 301.534C436.309 301.316 436.504 300.937 436.504 300.398V300.284C436.504 298.883 436.12 297.794 435.353 297.017C434.595 296.241 433.445 295.852 431.901 295.852C430.301 295.852 429.046 296.203 428.137 296.903C427.228 297.604 426.589 298.352 426.219 299.148L423.038 298.011C423.606 296.686 424.363 295.653 425.31 294.915C426.267 294.167 427.308 293.646 428.435 293.352C429.572 293.049 430.689 292.898 431.788 292.898C432.488 292.898 433.293 292.983 434.202 293.153C435.121 293.314 436.006 293.651 436.859 294.162C437.72 294.673 438.435 295.445 439.004 296.477C439.572 297.509 439.856 298.892 439.856 300.625V315H436.504V312.045H436.333C436.106 312.519 435.727 313.026 435.197 313.565C434.666 314.105 433.961 314.564 433.08 314.943C432.2 315.322 431.125 315.511 429.856 315.511ZM430.367 312.5C431.693 312.5 432.81 312.24 433.719 311.719C434.638 311.198 435.329 310.526 435.793 309.702C436.267 308.878 436.504 308.011 436.504 307.102V304.034C436.362 304.205 436.049 304.361 435.566 304.503C435.093 304.635 434.543 304.754 433.918 304.858C433.303 304.953 432.701 305.038 432.114 305.114C431.537 305.18 431.068 305.237 430.708 305.284C429.837 305.398 429.022 305.582 428.265 305.838C427.517 306.084 426.911 306.458 426.447 306.96C425.992 307.453 425.765 308.125 425.765 308.977C425.765 310.142 426.196 311.023 427.058 311.619C427.929 312.206 429.032 312.5 430.367 312.5ZM454.213 315.455C452.395 315.455 450.79 314.995 449.398 314.077C448.006 313.149 446.917 311.842 446.131 310.156C445.345 308.461 444.952 306.458 444.952 304.148C444.952 301.856 445.345 299.867 446.131 298.182C446.917 296.496 448.01 295.194 449.412 294.276C450.813 293.357 452.433 292.898 454.27 292.898C455.69 292.898 456.813 293.134 457.636 293.608C458.47 294.072 459.104 294.602 459.54 295.199C459.985 295.786 460.33 296.269 460.577 296.648H460.861V285.909H464.213V315H460.974V311.648H460.577C460.33 312.045 459.98 312.547 459.526 313.153C459.071 313.75 458.422 314.285 457.58 314.759C456.737 315.223 455.615 315.455 454.213 315.455ZM454.668 312.443C456.012 312.443 457.149 312.093 458.077 311.392C459.005 310.682 459.71 309.702 460.193 308.452C460.676 307.192 460.918 305.739 460.918 304.091C460.918 302.462 460.681 301.037 460.207 299.815C459.734 298.584 459.033 297.628 458.105 296.946C457.177 296.255 456.031 295.909 454.668 295.909C453.247 295.909 452.063 296.274 451.116 297.003C450.179 297.723 449.473 298.703 449 299.943C448.536 301.174 448.304 302.557 448.304 304.091C448.304 305.644 448.541 307.055 449.014 308.324C449.497 309.583 450.207 310.587 451.145 311.335C452.092 312.074 453.266 312.443 454.668 312.443ZM470.818 315V293.182H474.17V315H470.818ZM472.523 289.545C471.869 289.545 471.306 289.323 470.832 288.878C470.368 288.433 470.136 287.898 470.136 287.273C470.136 286.648 470.368 286.113 470.832 285.668C471.306 285.223 471.869 285 472.523 285C473.176 285 473.735 285.223 474.199 285.668C474.672 286.113 474.909 286.648 474.909 287.273C474.909 287.898 474.672 288.433 474.199 288.878C473.735 289.323 473.176 289.545 472.523 289.545ZM483.663 301.875V315H480.31V293.182H483.549V296.591H483.833C484.344 295.483 485.121 294.593 486.163 293.92C487.204 293.239 488.549 292.898 490.197 292.898C491.674 292.898 492.967 293.201 494.075 293.807C495.183 294.403 496.044 295.312 496.66 296.534C497.275 297.746 497.583 299.28 497.583 301.136V315H494.231V301.364C494.231 299.65 493.786 298.314 492.896 297.358C492.005 296.392 490.784 295.909 489.231 295.909C488.161 295.909 487.204 296.141 486.362 296.605C485.528 297.069 484.87 297.746 484.387 298.636C483.904 299.527 483.663 300.606 483.663 301.875ZM512.516 323.636C510.896 323.636 509.504 323.428 508.339 323.011C507.175 322.604 506.204 322.064 505.428 321.392C504.661 320.729 504.05 320.019 503.595 319.261L506.266 317.386C506.569 317.784 506.952 318.239 507.416 318.75C507.88 319.271 508.515 319.721 509.32 320.099C510.134 320.488 511.199 320.682 512.516 320.682C514.277 320.682 515.731 320.256 516.876 319.403C518.022 318.551 518.595 317.216 518.595 315.398V310.966H518.311C518.065 311.364 517.714 311.856 517.26 312.443C516.815 313.021 516.171 313.537 515.328 313.991C514.495 314.437 513.368 314.659 511.947 314.659C510.186 314.659 508.605 314.242 507.203 313.409C505.811 312.576 504.708 311.364 503.893 309.773C503.089 308.182 502.686 306.25 502.686 303.977C502.686 301.742 503.079 299.796 503.865 298.139C504.651 296.473 505.745 295.185 507.146 294.276C508.548 293.357 510.167 292.898 512.004 292.898C513.425 292.898 514.552 293.134 515.385 293.608C516.228 294.072 516.872 294.602 517.317 295.199C517.771 295.786 518.122 296.269 518.368 296.648H518.709V293.182H521.947V315.625C521.947 317.5 521.521 319.025 520.669 320.199C519.826 321.383 518.69 322.249 517.26 322.798C515.839 323.357 514.258 323.636 512.516 323.636ZM512.402 311.648C513.747 311.648 514.883 311.34 515.811 310.724C516.739 310.109 517.445 309.223 517.928 308.068C518.411 306.913 518.652 305.53 518.652 303.92C518.652 302.348 518.415 300.961 517.942 299.759C517.468 298.556 516.768 297.614 515.839 296.932C514.911 296.25 513.766 295.909 512.402 295.909C510.982 295.909 509.798 296.269 508.851 296.989C507.913 297.708 507.208 298.674 506.734 299.886C506.27 301.098 506.038 302.443 506.038 303.92C506.038 305.436 506.275 306.776 506.749 307.94C507.232 309.096 507.942 310.005 508.879 310.668C509.826 311.321 511 311.648 512.402 311.648Z" fill="#33ACA5"/>
</svg>
